<?xml version="1.0" encoding="UTF-8"?>
<svg id="Ebene_1" data-name="Ebene 1" xmlns="http://www.w3.org/2000/svg" viewBox="0 0 329.39 55.78">
  <defs>
    <style>
      .cls-1 {
        fill: #fff;
      }
    </style>
  </defs>
<title>intRechtDok</title>
<desc>Schriftzug des Dokumentenservers der internationalen und interdisziplinären Rechtsforschung</desc>
  <path class="cls-1" d="M4.5,0c1.22,0,2.28.29,3.16.86.89.57,1.33,1.64,1.33,3.19s-.44,2.57-1.33,3.16c-.89.59-1.94.89-3.16.89s-2.32-.3-3.19-.89c-.87-.59-1.3-1.65-1.3-3.16S.43,1.43,1.3.86c.87-.57,1.93-.86,3.19-.86ZM8.6,11.88v30.3H.33V11.88h8.27Z"/>
  <path class="cls-1" d="M33.76,11.32c3.26,0,5.86.88,7.83,2.64,1.96,1.76,2.94,4.58,2.94,8.46v19.76h-8.27v-17.7c0-2.18-.39-3.82-1.17-4.91-.78-1.09-2.02-1.64-3.72-1.64-2.52,0-4.24.86-5.16,2.58-.93,1.72-1.39,4.19-1.39,7.41v14.26h-8.27V11.88h6.33l1.11,3.89h.44c.67-1.04,1.48-1.88,2.44-2.53.96-.65,2.03-1.13,3.22-1.44,1.18-.31,2.41-.47,3.66-.47Z"/>
  <path class="cls-1" d="M65.17,36.13c.92,0,1.81-.09,2.66-.28.85-.18,1.7-.41,2.55-.67v6.16c-.89.37-1.99.69-3.3.97-1.31.28-2.75.42-4.3.42-1.81,0-3.43-.3-4.86-.89s-2.55-1.62-3.39-3.08c-.83-1.46-1.25-3.49-1.25-6.08v-14.6h-3.94v-3.5l4.55-2.77,2.39-6.38h5.27v6.44h8.49v6.22h-8.49v14.6c0,1.15.33,2.01,1,2.58.67.57,1.54.86,2.61.86Z"/>
  <path class="cls-1" d="M88.53,2.55c3.59,0,6.55.44,8.88,1.3,2.33.87,4.07,2.18,5.22,3.94,1.15,1.76,1.72,3.97,1.72,6.63,0,1.81-.34,3.4-1.03,4.75-.69,1.35-1.59,2.5-2.72,3.44-1.13.94-2.34,1.71-3.63,2.3l11.65,17.26h-9.32l-9.44-15.21h-4.5v15.21h-8.38V2.55h11.54ZM87.92,9.44h-2.55v10.71h2.72c2.77,0,4.76-.46,5.97-1.39,1.2-.92,1.8-2.29,1.8-4.11,0-1.26-.29-2.27-.86-3.02-.57-.76-1.44-1.31-2.61-1.67-1.17-.35-2.66-.53-4.47-.53Z"/>
  <path class="cls-1" d="M124.66,11.32c2.81,0,5.23.54,7.24,1.61,2.02,1.07,3.58,2.63,4.69,4.66,1.11,2.04,1.67,4.53,1.67,7.49v4h-19.54c.07,2.33.77,4.16,2.08,5.49,1.31,1.33,3.14,2,5.47,2,1.96,0,3.74-.19,5.33-.58,1.59-.39,3.24-.99,4.94-1.8v6.38c-1.48.74-3.04,1.29-4.69,1.64-1.65.35-3.64.53-5.97.53-3.03,0-5.72-.56-8.05-1.69-2.33-1.13-4.16-2.84-5.49-5.13-1.33-2.29-2-5.18-2-8.66s.6-6.5,1.8-8.85c1.2-2.35,2.88-4.12,5.02-5.3,2.15-1.18,4.64-1.78,7.49-1.78ZM124.72,17.21c-1.59,0-2.91.52-3.97,1.55-1.05,1.04-1.67,2.65-1.86,4.83h11.6c0-1.22-.21-2.31-.64-3.27-.43-.96-1.06-1.72-1.92-2.28-.85-.56-1.92-.83-3.22-.83Z"/>
  <path class="cls-1" d="M157.28,42.73c-3,0-5.55-.55-7.66-1.64-2.11-1.09-3.72-2.78-4.83-5.08-1.11-2.29-1.67-5.24-1.67-8.82s.63-6.72,1.89-9.05,3.01-4.05,5.25-5.16c2.24-1.11,4.82-1.66,7.74-1.66,2.07,0,3.88.2,5.41.61,1.54.41,2.88.89,4.02,1.44l-2.44,6.38c-1.3-.52-2.51-.94-3.64-1.28-1.13-.33-2.25-.5-3.36-.5-1.44,0-2.65.34-3.61,1.03-.96.69-1.67,1.7-2.14,3.05-.46,1.35-.69,3.04-.69,5.08s.25,3.65.75,4.97c.5,1.31,1.23,2.29,2.19,2.94.96.65,2.13.97,3.5.97,1.74,0,3.27-.23,4.61-.69,1.33-.46,2.63-1.1,3.88-1.91v7.05c-1.26.81-2.58,1.4-3.97,1.75-1.39.35-3.14.53-5.25.53Z"/>
  <path class="cls-1" d="M181.33,8.6c0,1.48-.05,2.91-.14,4.27-.09,1.37-.18,2.33-.25,2.89h.44c.67-1.04,1.44-1.88,2.33-2.53.89-.65,1.88-1.13,2.97-1.44,1.09-.31,2.25-.47,3.47-.47,2.18,0,4.09.39,5.72,1.17,1.63.78,2.89,1.98,3.8,3.61.91,1.63,1.36,3.74,1.36,6.33v19.76h-8.27v-17.7c0-2.18-.4-3.82-1.19-4.91-.8-1.09-2.03-1.64-3.69-1.64s-2.97.39-3.91,1.17c-.94.78-1.62,1.91-2.03,3.39-.41,1.48-.61,3.29-.61,5.44v14.26h-8.27V0h8.27v8.6Z"/>
  <path class="cls-1" d="M221.65,36.13c.92,0,1.81-.09,2.66-.28.85-.18,1.7-.41,2.55-.67v6.16c-.89.37-1.99.69-3.3.97-1.31.28-2.75.42-4.3.42-1.81,0-3.43-.3-4.86-.89-1.42-.59-2.55-1.62-3.39-3.08-.83-1.46-1.25-3.49-1.25-6.08v-14.6h-3.94v-3.5l4.55-2.77,2.39-6.38h5.27v6.44h8.49v6.22h-8.49v14.6c0,1.15.33,2.01,1,2.58.67.57,1.53.86,2.61.86Z"/>
  <path class="cls-1" d="M265.32,21.98c0,4.44-.82,8.16-2.47,11.16-1.65,3-4.01,5.25-7.08,6.77-3.07,1.52-6.79,2.28-11.16,2.28h-11.04V2.55h12.21c4,0,7.46.74,10.38,2.22,2.92,1.48,5.18,3.65,6.77,6.52,1.59,2.87,2.39,6.43,2.39,10.68ZM260.05,22.14c0-3.51-.58-6.4-1.75-8.66-1.17-2.26-2.87-3.93-5.11-5.02-2.24-1.09-4.95-1.64-8.13-1.64h-6.49v31.08h5.38c5.36,0,9.39-1.32,12.07-3.97,2.68-2.65,4.02-6.58,4.02-11.79Z"/>
  <path class="cls-1" d="M298.36,27.25c0,2.48-.32,4.67-.97,6.58-.65,1.91-1.57,3.52-2.77,4.86-1.2,1.33-2.66,2.34-4.38,3.02-1.72.68-3.64,1.03-5.74,1.03-1.96,0-3.77-.34-5.44-1.03-1.67-.68-3.11-1.69-4.33-3.02-1.22-1.33-2.17-2.95-2.86-4.86-.69-1.91-1.03-4.1-1.03-6.58,0-3.29.55-6.08,1.67-8.35,1.11-2.28,2.7-4.01,4.77-5.22,2.07-1.2,4.53-1.8,7.38-1.8,2.7,0,5.08.6,7.13,1.8,2.05,1.2,3.66,2.94,4.83,5.22,1.17,2.28,1.75,5.06,1.75,8.35ZM275.89,27.25c0,2.33.3,4.36.92,6.08.61,1.72,1.56,3.04,2.86,3.97,1.29.93,2.94,1.39,4.94,1.39s3.64-.46,4.94-1.39c1.29-.92,2.25-2.25,2.86-3.97.61-1.72.92-3.75.92-6.08s-.31-4.38-.94-6.05c-.63-1.67-1.58-2.95-2.86-3.86-1.28-.91-2.93-1.36-4.97-1.36-3.03,0-5.24,1-6.6,3-1.37,2-2.05,4.75-2.05,8.27Z"/>
  <path class="cls-1" d="M309.8,22.03c0,.59-.03,1.37-.08,2.33-.06.96-.1,1.79-.14,2.5h.22c.22-.3.56-.72,1-1.28.44-.55.9-1.12,1.36-1.69.46-.57.86-1.04,1.19-1.42l9.49-10.05h5.72l-12.04,12.71,12.88,17.04h-5.88l-10.32-13.88-3.39,2.94v10.93h-4.83V0h4.83v22.03Z"/>
</svg>