<?xml version="1.0" encoding="utf-8"?>
<!-- Generator: Adobe Illustrator 21.1.0, SVG Export Plug-In . SVG Version: 6.00 Build 0)  -->
<svg version="1.1" id="Ebene_1" xmlns="http://www.w3.org/2000/svg" xmlns:xlink="http://www.w3.org/1999/xlink" x="0px" y="0px"
	 viewBox="0 0 100.5 39" style="enable-background:new 0 0 100.5 39;" xml:space="preserve">
<style type="text/css">
	.st0{fill:#FFFFFF;}
</style>
<g>
	<g id="Logo">
		<path id="path2424" class="st0" d="M34.2,10.5V12h4.2v-1.4c0-3.4,2.8-6.2,6.2-6.2c3.4,0,6.2,2.8,6.2,6.2v10.3H55V10.5
			C55.1,4.8,50.5,0.1,44.7,0S34.3,4.5,34.2,10.3C34.2,10.4,34.2,10.4,34.2,10.5"/>
		<path id="path2426" class="st0" d="M48.1,26.8c0,1.9-1.5,3.4-3.4,3.4c-1.9,0-3.4-1.5-3.4-3.4s1.5-3.4,3.4-3.4l0,0
			C46.5,23.4,48.1,24.9,48.1,26.8C48.1,26.8,48.1,26.8,48.1,26.8"/>
		<path id="path2428" class="st0" d="M36.5,26.8c0-4.5,3.6-8.1,8.1-8.1c4.5,0,8.1,3.6,8.1,8.1c0,4.5-3.6,8.1-8.1,8.1
			C40.1,34.9,36.5,31.2,36.5,26.8 M32.3,26.8c0,6.8,5.5,12.3,12.3,12.3s12.3-5.5,12.3-12.3s-5.5-12.3-12.3-12.3l0,0
			C37.8,14.5,32.3,20,32.3,26.8"/>
	</g>
	<g>
		<path class="st0" d="M57.4,17.2c0-0.7,0.1-1.5,0.3-2.2c0.2-0.6,0.5-1.1,0.9-1.6c0.4-0.4,0.9-0.8,1.4-1c0.6-0.2,1.3-0.4,1.9-0.3
			c0.7,0,1.4,0.1,2,0.4c0.5,0.2,1,0.6,1.4,1c0.4,0.5,0.7,1,0.9,1.6c0.2,0.7,0.3,1.4,0.3,2.1c0,0.7-0.1,1.5-0.3,2.2
			C66,20,65.7,20.5,65.3,21c-0.4,0.4-0.9,0.8-1.4,1c-0.6,0.2-1.2,0.4-1.9,0.3c-0.7,0-1.4-0.1-2-0.4c-0.5-0.2-1-0.6-1.4-1
			c-0.4-0.5-0.7-1-0.8-1.6C57.5,18.6,57.4,17.9,57.4,17.2z M59.6,17.2c0,0.4,0,0.9,0.1,1.3c0.1,0.4,0.2,0.7,0.4,1
			c0.2,0.3,0.4,0.5,0.7,0.7c0.3,0.2,0.7,0.2,1,0.2c0.7,0,1.3-0.3,1.7-0.8c0.4-0.5,0.6-1.3,0.6-2.5c0-0.4,0-0.9-0.1-1.3
			c-0.1-0.4-0.2-0.7-0.4-1c-0.2-0.3-0.4-0.5-0.7-0.7c-0.3-0.2-0.7-0.3-1.1-0.2c-0.7,0-1.3,0.3-1.7,0.8
			C59.8,15.3,59.6,16.1,59.6,17.2z"/>
		<path class="st0" d="M68,14.8h1.4l0.2,0.9h0.2c0.3-0.4,0.6-0.6,1-0.8c0.4-0.2,0.9-0.3,1.3-0.3c1,0,1.7,0.3,2.2,0.9
			c0.5,0.6,0.7,1.5,0.7,2.8c0,0.6-0.1,1.1-0.2,1.7c-0.1,0.5-0.4,0.9-0.7,1.3c-0.3,0.4-0.7,0.6-1.1,0.8c-0.5,0.2-1,0.3-1.6,0.3
			c-0.3,0-0.6,0-0.8-0.1c-0.2-0.1-0.5-0.1-0.7-0.2v2.9h-2L68,14.8z M71.6,16.2c-0.4,0-0.8,0.1-1,0.3c-0.3,0.2-0.5,0.6-0.6,0.9v2.9
			c0.2,0.1,0.3,0.2,0.5,0.3c0.2,0.1,0.5,0.1,0.7,0.1c0.6,0,1.1-0.2,1.4-0.6c0.3-0.4,0.5-1,0.5-1.9c0-0.6-0.1-1.1-0.4-1.5
			C72.6,16.4,72.2,16.2,71.6,16.2z"/>
		<path class="st0" d="M83,21.5c-0.4,0.3-0.8,0.5-1.3,0.6c-0.6,0.2-1.2,0.3-1.8,0.3c-1.3,0-2.2-0.3-2.8-1c-0.6-0.7-0.9-1.6-0.9-2.8
			c0-1.3,0.3-2.2,1-2.9s1.6-1,2.8-1c0.4,0,0.8,0,1.2,0.1c0.4,0.1,0.7,0.3,1,0.5c0.3,0.2,0.6,0.6,0.7,0.9c0.2,0.5,0.3,0.9,0.3,1.4
			c0,0.2,0,0.4,0,0.6c0,0.2-0.1,0.5-0.1,0.7h-4.9c0,0.6,0.2,1.1,0.6,1.4c0.3,0.3,0.8,0.5,1.6,0.5c0.4,0,0.8-0.1,1.2-0.2
			c0.3-0.1,0.6-0.2,0.8-0.4L83,21.5z M80.1,16.1c-0.6,0-1,0.2-1.3,0.5c-0.3,0.3-0.5,0.8-0.5,1.2h3.2c0-0.5-0.1-0.9-0.3-1.2
			S80.6,16.1,80.1,16.1z"/>
		<path class="st0" d="M90,22.1v-4c0-0.6-0.1-1.1-0.3-1.4c-0.2-0.3-0.5-0.4-1-0.4c-0.4,0-0.8,0.1-1.1,0.3c-0.3,0.2-0.5,0.5-0.6,0.9
			c0,0.8,0,1.5,0,2.3s0,1.5,0,2.3h-2v-7.3h1.5l0.2,1H87c0.3-0.4,0.6-0.7,1-0.9c0.5-0.3,1-0.4,1.6-0.4c0.4,0,0.7,0,1,0.1
			c0.3,0.1,0.6,0.3,0.8,0.5c0.2,0.3,0.4,0.6,0.5,1c0.1,0.5,0.2,1,0.2,1.5v4.4H90z"/>
		<path class="st0" d="M63,33.7h-3.3l-0.8,2.1h-2.1l3.8-9.9h1.5l3.8,9.9h-2.2L63,33.7z M60.3,32.1h2.2l-0.8-2l-0.3-1.6h-0.1L61,30.1
			L60.3,32.1z"/>
		<path class="st0" d="M72.3,35.4c-0.3,0.2-0.7,0.4-1.1,0.5C70.7,36,70.3,36,69.8,36c-0.5,0-1.1-0.1-1.6-0.3
			c-0.4-0.2-0.8-0.4-1.1-0.8c-0.3-0.4-0.5-0.8-0.6-1.2c-0.1-0.5-0.2-1-0.2-1.6c0-1.2,0.3-2.2,0.9-2.9c0.6-0.7,1.5-1,2.6-1
			c0.5,0,0.9,0,1.4,0.1c0.3,0.1,0.7,0.2,1,0.3l-0.5,1.6c-0.2-0.1-0.5-0.2-0.7-0.2C70.8,30,70.5,30,70.2,30c-0.6,0-1,0.2-1.4,0.5
			s-0.5,0.9-0.5,1.6c0,0.3,0,0.6,0.1,0.8c0.1,0.2,0.2,0.5,0.3,0.7c0.2,0.2,0.4,0.4,0.6,0.5c0.3,0.1,0.6,0.2,0.9,0.2
			c0.3,0,0.6,0,0.9-0.1c0.2-0.1,0.4-0.2,0.7-0.3L72.3,35.4z"/>
		<path class="st0" d="M79,35.4c-0.3,0.2-0.7,0.4-1.1,0.5C77.5,36,77,36,76.5,36c-0.5,0-1.1-0.1-1.6-0.3c-0.4-0.2-0.8-0.4-1.1-0.8
			c-0.3-0.4-0.5-0.8-0.6-1.2c-0.1-0.5-0.2-1-0.2-1.6c0-1.2,0.3-2.2,0.9-2.9c0.6-0.7,1.5-1,2.6-1c0.5,0,0.9,0,1.4,0.1
			c0.3,0.1,0.7,0.2,1,0.3l-0.5,1.6c-0.2-0.1-0.5-0.2-0.7-0.2C77.5,30,77.2,30,76.9,30c-0.6,0-1,0.2-1.4,0.5
			c-0.3,0.3-0.5,0.9-0.5,1.6c0,0.3,0,0.6,0.1,0.8c0.1,0.2,0.2,0.5,0.3,0.7c0.2,0.2,0.4,0.4,0.6,0.5c0.3,0.1,0.6,0.2,0.9,0.2
			c0.3,0,0.6,0,0.9-0.1c0.2-0.1,0.4-0.2,0.7-0.3L79,35.4z"/>
		<path class="st0" d="M86.5,35.1c-0.4,0.3-0.8,0.5-1.3,0.6c-0.6,0.2-1.2,0.3-1.8,0.3c-1.3,0-2.2-0.3-2.8-1
			c-0.6-0.7-0.9-1.6-0.9-2.8c0-1.3,0.3-2.2,1-2.9s1.6-1,2.8-1c0.4,0,0.8,0,1.2,0.1c0.4,0.1,0.7,0.3,1,0.5c0.3,0.2,0.6,0.6,0.7,0.9
			c0.2,0.5,0.3,0.9,0.3,1.4c0,0.2,0,0.4,0,0.6c0,0.2-0.1,0.5-0.1,0.7h-4.9c0,0.6,0.2,1.1,0.6,1.4c0.3,0.3,0.8,0.5,1.6,0.5
			c0.4,0,0.8-0.1,1.2-0.2c0.3-0.1,0.6-0.2,0.8-0.4L86.5,35.1z M83.6,29.8c-0.6,0-1,0.2-1.3,0.5c-0.3,0.3-0.5,0.8-0.5,1.2H85
			c0-0.5-0.1-0.9-0.3-1.2C84.4,29.9,84.1,29.8,83.6,29.8z"/>
		<path class="st0" d="M88.5,33.9c0.1,0.1,0.3,0.1,0.5,0.2c0.2,0.1,0.4,0.1,0.6,0.2c0.2,0.1,0.4,0.1,0.6,0.1c0.2,0,0.4,0.1,0.6,0.1
			c0.3,0,0.5,0,0.8-0.2c0.2-0.1,0.3-0.3,0.3-0.6c0-0.2-0.1-0.4-0.4-0.5c-0.3-0.1-0.6-0.2-0.9-0.3c-0.3-0.1-0.5-0.2-0.8-0.3
			c-0.3-0.1-0.5-0.2-0.8-0.4c-0.2-0.2-0.4-0.4-0.6-0.7c-0.2-0.3-0.2-0.7-0.2-1.1c0-0.7,0.2-1.3,0.7-1.7s1.1-0.6,2-0.6
			c0.5,0,1.1,0,1.6,0.1c0.4,0.1,0.8,0.2,1.2,0.3l-0.4,1.5c-0.3-0.1-0.6-0.2-0.9-0.3c-0.4-0.1-0.8-0.1-1.2-0.1c-0.3,0-0.5,0-0.7,0.1
			c-0.2,0.1-0.3,0.3-0.2,0.5c0,0.2,0.1,0.4,0.4,0.5c0.3,0.1,0.6,0.2,0.9,0.3c0.3,0.1,0.5,0.2,0.8,0.3c0.3,0.1,0.5,0.2,0.8,0.4
			c0.2,0.2,0.4,0.4,0.6,0.7c0.2,0.3,0.2,0.7,0.2,1c0,0.8-0.3,1.4-0.8,1.8c-0.5,0.4-1.3,0.6-2.3,0.6c-0.5,0-1,0-1.5-0.1
			c-0.4-0.1-0.8-0.2-1.2-0.4L88.5,33.9z"/>
		<path class="st0" d="M95.3,33.9c0.1,0.1,0.3,0.1,0.5,0.2c0.2,0.1,0.4,0.1,0.6,0.2c0.2,0.1,0.4,0.1,0.6,0.1c0.2,0,0.4,0.1,0.6,0.1
			c0.3,0,0.5,0,0.8-0.2c0.2-0.1,0.3-0.3,0.3-0.6c0-0.2-0.1-0.4-0.4-0.5c-0.3-0.1-0.6-0.2-0.9-0.3c-0.3-0.1-0.5-0.2-0.8-0.3
			c-0.3-0.1-0.5-0.2-0.8-0.4c-0.2-0.2-0.4-0.4-0.6-0.7c-0.2-0.3-0.2-0.7-0.2-1.1c0-0.7,0.2-1.3,0.7-1.7s1.1-0.6,2-0.6
			c0.5,0,1.1,0,1.6,0.1c0.4,0.1,0.8,0.2,1.2,0.3l-0.4,1.5c-0.3-0.1-0.6-0.2-0.9-0.3c-0.4-0.1-0.8-0.1-1.2-0.1c-0.3,0-0.5,0-0.7,0.1
			c-0.2,0.1-0.3,0.3-0.2,0.5c0,0.2,0.1,0.4,0.4,0.5c0.3,0.1,0.6,0.2,0.9,0.3c0.3,0.1,0.5,0.2,0.8,0.3c0.3,0.1,0.5,0.2,0.8,0.4
			c0.2,0.2,0.4,0.4,0.6,0.7c0.2,0.3,0.2,0.7,0.2,1c0,0.8-0.3,1.4-0.8,1.8c-0.5,0.4-1.3,0.6-2.3,0.6c-0.5,0-1,0-1.5-0.1
			c-0.4-0.1-0.8-0.2-1.2-0.4L95.3,33.9z"/>
	</g>
	<g>
		<path class="st0" d="M18.5,20h-3.3l-0.8,2.1h-2.1l3.8-9.9h1.5l3.8,9.9h-2.2L18.5,20z M15.8,18.4h2.2l-0.8-2L17,14.8h-0.1l-0.3,1.6
			L15.8,18.4z"/>
		<path class="st0" d="M24.6,19.5c0,0.7,0.2,1.1,0.7,1.1c0.1,0,0.2,0,0.4,0c0.1,0,0.3-0.1,0.4-0.1l0.2,1.5c-0.3,0.1-0.5,0.2-0.8,0.2
			c-0.3,0.1-0.7,0.1-1.1,0.1c-0.6,0-1-0.1-1.4-0.4s-0.5-0.7-0.5-1.3v-8.3h2L24.6,19.5z"/>
		<path class="st0" d="M29.3,19.5c0,0.7,0.2,1.1,0.7,1.1c0.1,0,0.2,0,0.4,0c0.1,0,0.3-0.1,0.4-0.1L31,22c-0.3,0.1-0.5,0.2-0.8,0.2
			c-0.3,0.1-0.7,0.1-1.1,0.1c-0.6,0-1-0.1-1.4-0.4s-0.5-0.7-0.5-1.3v-8.3h2L29.3,19.5z"/>
		<path class="st0" d="M0,26h6.3v1.8H2.1v2.3H6v1.8H2.1v3.9H0V26z"/>
		<path class="st0" d="M7.8,26.6c0-0.3,0.1-0.6,0.3-0.7c0.3-0.2,0.6-0.3,0.9-0.3c0.3,0,0.7,0.1,1,0.3c0.2,0.2,0.4,0.5,0.3,0.7
			c0,0.3-0.1,0.5-0.3,0.7c-0.3,0.2-0.6,0.3-1,0.3c-0.3,0-0.7-0.1-0.9-0.3C7.9,27.2,7.7,26.9,7.8,26.6z M8,28.5h2v7.3H8V28.5z"/>
		<path class="st0" d="M14.2,33.2c0,0.7,0.2,1.1,0.7,1.1c0.1,0,0.2,0,0.4,0c0.1,0,0.3-0.1,0.4-0.1l0.2,1.5c-0.3,0.1-0.5,0.2-0.8,0.2
			C14.8,36,14.5,36,14.1,36c-0.6,0-1-0.1-1.4-0.4c-0.3-0.3-0.5-0.7-0.5-1.3V26h2L14.2,33.2z"/>
		<path class="st0" d="M23.2,35.1c-0.4,0.3-0.8,0.5-1.3,0.6c-0.6,0.2-1.2,0.3-1.8,0.3c-1.3,0-2.2-0.3-2.8-1
			c-0.6-0.7-0.9-1.6-0.9-2.8c0-1.3,0.3-2.2,1-2.9s1.6-1,2.8-1c0.4,0,0.8,0,1.2,0.1c0.4,0.1,0.7,0.3,1,0.5c0.3,0.2,0.6,0.6,0.7,0.9
			c0.2,0.5,0.3,0.9,0.3,1.4c0,0.2,0,0.4,0,0.6c0,0.2-0.1,0.5-0.1,0.7h-4.9c0,0.6,0.2,1.1,0.6,1.4c0.3,0.3,0.8,0.5,1.6,0.5
			c0.4,0,0.8-0.1,1.2-0.2c0.3-0.1,0.6-0.2,0.8-0.4L23.2,35.1z M20.3,29.8c-0.6,0-1,0.2-1.3,0.5c-0.3,0.3-0.5,0.8-0.5,1.2h3.2
			c0-0.5-0.1-0.9-0.3-1.2C21.2,29.9,20.8,29.8,20.3,29.8L20.3,29.8z"/>
		<path class="st0" d="M25.2,33.9c0.1,0.1,0.3,0.1,0.5,0.2c0.2,0.1,0.4,0.1,0.6,0.2c0.2,0.1,0.4,0.1,0.6,0.1c0.2,0,0.4,0.1,0.6,0.1
			c0.3,0,0.5,0,0.8-0.2c0.2-0.1,0.3-0.3,0.3-0.6c0-0.2-0.1-0.4-0.4-0.5c-0.3-0.1-0.6-0.2-0.9-0.3c-0.3-0.1-0.5-0.2-0.8-0.3
			c-0.3-0.1-0.5-0.2-0.8-0.4c-0.2-0.2-0.4-0.4-0.6-0.7c-0.2-0.3-0.2-0.7-0.2-1.1c0-0.7,0.2-1.3,0.7-1.7c0.5-0.4,1.1-0.6,2-0.6
			c0.5,0,1.1,0,1.6,0.1c0.4,0.1,0.8,0.2,1.2,0.3l-0.4,1.5c-0.3-0.1-0.6-0.2-0.9-0.3c-0.4-0.1-0.8-0.1-1.2-0.1c-0.3,0-0.5,0-0.7,0.1
			c-0.2,0.1-0.3,0.3-0.2,0.5c0,0.2,0.1,0.4,0.4,0.5c0.3,0.1,0.6,0.2,0.9,0.3c0.3,0.1,0.5,0.2,0.8,0.3c0.3,0.1,0.5,0.2,0.8,0.4
			c0.2,0.2,0.4,0.4,0.6,0.7c0.2,0.3,0.2,0.7,0.2,1c0,0.8-0.3,1.4-0.8,1.8c-0.5,0.4-1.3,0.6-2.3,0.6c-0.5,0-1,0-1.5-0.1
			c-0.4-0.1-0.8-0.2-1.2-0.4L25.2,33.9z"/>
	</g>
</g>
</svg>
